<svg width="65" height="15" viewBox="0 0 65 15" fill="none" xmlns="http://www.w3.org/2000/svg"><path d="M.264 15V.455h9.63V2.99H3.34v3.466h5.917v2.535H3.339V15H.264zM15.04.455V15h-3.076V.455h3.076zm14.696 0V15H27.08L20.75 5.845h-.107V15H17.57V.455h2.699l6.278 9.147h.128V.455h3.061zM37.432 15h-5.156V.455h5.199c1.463 0 2.722.29 3.778.873a5.893 5.893 0 012.436 2.493c.573 1.084.86 2.382.86 3.892 0 1.515-.287 2.817-.86 3.906a5.906 5.906 0 01-2.45 2.507c-1.06.583-2.33.874-3.807.874zm-2.08-2.635h1.952c.91 0 1.674-.16 2.294-.483.625-.327 1.094-.83 1.407-1.513.317-.686.475-1.572.475-2.656 0-1.075-.158-1.953-.475-2.635-.313-.682-.78-1.184-1.4-1.506-.62-.322-1.384-.483-2.294-.483h-1.96v9.276zM53.961 15h-3.295L55.69.455h3.963L64.666 15H61.37L57.727 3.778h-.114L53.963 15zm-.205-5.717h7.784v2.4h-7.784v-2.4z" fill="#fff"/></svg>