<svg width="43" height="16" viewBox="0 0 43 16" fill="none" xmlns="http://www.w3.org/2000/svg"><path d="M.412.455h3.445l3.316 6.264h.142L10.632.455h3.445L8.77 9.858V15H5.717V9.858L.412.455zm27.832 7.272c0 1.586-.3 2.936-.902 4.049-.597 1.112-1.411 1.962-2.443 2.55-1.028.582-2.183.873-3.466.873-1.293 0-2.453-.294-3.48-.88-1.028-.588-1.84-1.438-2.436-2.55-.597-1.113-.895-2.46-.895-4.042 0-1.586.298-2.935.895-4.048.596-1.113 1.408-1.96 2.436-2.543 1.027-.587 2.187-.88 3.48-.88 1.283 0 2.438.293 3.466.88 1.032.583 1.846 1.43 2.443 2.543.601 1.113.902 2.462.902 4.048zm-3.118 0c0-1.027-.154-1.894-.462-2.6-.303-.705-.731-1.24-1.285-1.604-.554-.365-1.203-.547-1.946-.547-.744 0-1.392.182-1.946.547-.554.364-.985.9-1.293 1.605-.303.705-.454 1.572-.454 2.6 0 1.027.151 1.893.454 2.599.308.705.739 1.24 1.293 1.605.554.364 1.203.547 1.946.547.743 0 1.392-.183 1.946-.547.554-.365.982-.9 1.285-1.605.308-.706.462-1.572.462-2.6zM39.506.455h3.076V9.9c0 1.06-.254 1.988-.76 2.784-.502.795-1.205 1.415-2.11 1.86-.904.44-1.958.661-3.16.661-1.208 0-2.263-.22-3.168-.66-.904-.446-1.607-1.066-2.11-1.861-.501-.796-.752-1.724-.752-2.784V.455h3.075v9.183c0 .554.121 1.046.362 1.477.247.43.592.77 1.037 1.016.445.246.964.369 1.556.369.596 0 1.115-.123 1.555-.37a2.593 2.593 0 001.03-1.015c.246-.43.37-.923.37-1.477V.455z" fill="#fff"/></svg>