<svg width="115" height="15" viewBox="0 0 115 15" fill="none" xmlns="http://www.w3.org/2000/svg"><path d="M2.494 15L.932.455h1.79L3.802 12.3h.141L9 .455h1.989L12.125 12.3h.142l5-11.846h1.79L12.665 15h-1.818L9.568 3.41h-.113L4.312 15H2.494zM23.013.455L20.598 15h-1.761L21.25.455h1.762zM24.13 15L26.544.455h1.762l-2.16 12.982h6.762L32.652 15H24.13zm11.25 0L37.794.455h1.762l-2.16 12.982h6.762L43.902 15H35.38zM53.618 2.017l.256-1.562h10.909l-.256 1.562h-4.574L57.794 15h-1.761l2.16-12.983h-4.575zM65.087 15L67.5.455h4.915c1.137 0 2.036.191 2.7.575.667.383 1.119.911 1.356 1.584.241.672.29 1.439.149 2.3a5.474 5.474 0 01-.91 2.274c-.459.662-1.084 1.183-1.874 1.562-.786.379-1.743.568-2.87.568H66.99l.284-1.59h3.92c.777 0 1.421-.114 1.932-.342.512-.227.91-.551 1.194-.973.284-.421.473-.92.568-1.498.094-.587.068-1.096-.078-1.527-.142-.436-.434-.772-.874-1.009-.436-.241-1.046-.362-1.832-.362h-3.097L66.848 15h-1.761zm7.926-6.534l2.5 6.534h-2.046l-2.443-6.534h1.989zM77.88 15L80.294.455h8.779l-.256 1.562H81.8l-.824 4.915h6.563l-.256 1.562H80.72l-.823 4.944h7.13L86.772 15H77.88zm12.55 0h-1.847L96.338.455h1.819L101.083 15h-1.847L96.935 2.756h-.114L90.43 15zm1.619-5.682h7.443l-.256 1.563h-7.443l.256-1.563zm10.964-7.301l.255-1.562h10.91l-.256 1.562h-4.574L107.189 15h-1.761l2.159-12.983h-4.574z" fill="#fff"/></svg>