<svg width="90" height="16" viewBox="0 0 90 16" fill="none" xmlns="http://www.w3.org/2000/svg"><path d="M.264 15V.455H3.34v12.01h6.236V15H.265zM14.687.455V15h-3.075V.455h3.075zM17.217 15V.455h3.076v6.413h.191L25.72.455h3.686l-5.398 6.512L29.47 15h-3.68l-3.984-5.98-1.512 1.847V15h-3.076zm13.79 0V.455h9.8V2.99h-6.725v3.466h6.221v2.535h-6.221v3.473h6.754V15h-9.83zM47.028.455h3.445l3.317 6.264h.142L57.248.455h3.445l-5.306 9.403V15h-3.053V9.858L47.029.455zm27.832 7.272c0 1.586-.3 2.936-.902 4.049-.596 1.112-1.41 1.962-2.443 2.55-1.028.582-2.183.873-3.466.873-1.293 0-2.453-.294-3.48-.88-1.027-.588-1.84-1.438-2.436-2.55-.597-1.113-.895-2.46-.895-4.042 0-1.586.298-2.935.895-4.048.596-1.113 1.408-1.96 2.436-2.543 1.027-.587 2.188-.88 3.48-.88 1.283 0 2.439.293 3.466.88 1.032.583 1.847 1.43 2.443 2.543.602 1.113.902 2.462.902 4.048zm-3.118 0c0-1.027-.154-1.894-.461-2.6-.303-.705-.732-1.24-1.286-1.604-.554-.365-1.203-.547-1.946-.547-.743 0-1.392.182-1.946.547-.554.364-.985.9-1.293 1.605-.303.705-.454 1.572-.454 2.6 0 1.027.151 1.893.454 2.599.308.705.74 1.24 1.293 1.605.554.364 1.203.547 1.946.547.743 0 1.392-.183 1.946-.547.554-.365.983-.9 1.286-1.605.307-.706.461-1.572.461-2.6zM86.123.455H89.2V9.9c0 1.06-.254 1.988-.76 2.784-.502.795-1.205 1.415-2.11 1.86-.904.44-1.957.661-3.16.661-1.207 0-2.263-.22-3.168-.66-.904-.446-1.607-1.066-2.109-1.861-.502-.796-.753-1.724-.753-2.784V.455h3.076v9.183c0 .554.12 1.046.362 1.477.246.43.592.77 1.037 1.016.445.246.963.369 1.555.369.597 0 1.115-.123 1.555-.37a2.593 2.593 0 001.03-1.015c.246-.43.37-.923.37-1.477V.455z" fill="#F7CC52"/></svg>