<svg width="103" height="92" viewBox="0 0 103 92" fill="none" xmlns="http://www.w3.org/2000/svg"><g clip-path="url(#clip0_14_2)"><path d="M52.125 89.216l-1.18-.046a57.079 57.079 0 000-4.283l1.18-.048a59.586 59.586 0 010 4.377zM26.858 80.445l-.872-.792c.895-.98 1.95-2.238 2.757-3.28l.934.718a57.934 57.934 0 01-2.819 3.354zM76.19 80.434a58.034 58.034 0 00-2.757-3.28l.872-.793c.909.998 1.99 2.283 2.819 3.354l-.934.719z" fill="#fff"/><path d="M62.068 39.01H103M0 39.01h52.977M0 63.299h103" stroke="#fff" stroke-width="1.05" stroke-miterlimit="10"/><path d="M51.501 0l1.468 4.515h4.754l-3.846 2.793 1.467 4.515-3.843-2.79-3.845 2.79 1.467-4.515-3.846-2.793h4.754L51.501 0zM62.697 4.726l.948 2.92h3.073L64.232 9.45l.951 2.92-2.486-1.807-2.488 1.806.95-2.92-2.485-1.803h3.072l.951-2.92zM40.32 4.726l.948 2.92h3.072L41.855 9.45l.95 2.92-2.485-1.807-2.486 1.806.948-2.92-2.486-1.803h3.073l.95-2.92zM29.75 16.676c.731.33 1.862 1.319 1.862 1.978 0 .66-1.51 3.016-1.51 4.194 0 .26-.307.54-.518.54-.33 0-1.673-.8-1.673-1.86 0-1.059 1.532-2.944 1.532-3.7 0-.188-.164-.448-.401-.448-1.368 0-2.926 2.45-4.506 6.643-1.086 2.875-2.525 5.842-4.294 8.058 2.452 1.6 4.954 3.415 7.384 3.415 1.227 0 1.628-.589 1.84-.589.21 0 .4.141.4.378 0 .707-1.65 2.686-3.75 2.686-1.958 0-4.624-2.545-7.195-4.476-1.346 1.226-2.83 2.004-4.458 2.004-2.192 0-3.846-1.79-3.846-3.156 0-1.226 1.487-2.853 3.68-2.853 1.202 0 2.429.494 3.679 1.179 1.532-2.264 2.76-5.231 3.634-7.28 2.24-5.279 3.702-7.564 6.39-7.564.686 0 1.11.14 1.747.848l.003.003zM16.87 32.109c-.897-.496-1.747-.826-2.5-.826-1.202 0-2.263.848-2.263 1.485 0 .637.66 1.178 1.487 1.178 1.18 0 2.263-.707 3.279-1.837h-.003z" fill="#fff"/><path d="M34.138 32.438c-.141-.259-.167-.707-.167-1.014v-.307s-1.769 2.686-3.256 2.686c-1.487 0-2.83-1.579-2.83-2.923 0-2.497 3.657-7.375 6.038-7.375 1.087 0 2.288 1.037 2.288 1.814 0 0 .353-.233.542-.233.497 0 1.676.777 1.676 1.107 0 .33-1.439 2.074-2.003 3.816-.308.944-.378 1.46-.378 1.697 0 .377.353.589.66.589.497 0 2.1-1.908 3.067-3.253.4-.566.52-.755.638-.755.189 0 .567.567.567.919 0 .352-.093.637-.59 1.27-.897 1.179-2.407 3.183-3.89 3.183-1.039 0-1.959-.567-2.36-1.226l-.002.005zm-4.01-.54c0 .352.308.54.638.54.542 0 2.57-2.192 3.445-3.723-.07-.118-.141-.188-.141-.352 0-.4.945-1.178.945-2.285 0-.353-.282-.567-.59-.567-1.108 0-4.294 4.43-4.294 6.386h-.003z" fill="#fff"/><path d="M50.675 30.46c.99-1.79 1.746-4.382 1.746-5.89 0-1.037.141-1.39.353-1.39.686 0 1.58 1.226 1.58 2.945 0 1.72-.897 3.698-2.077 5.231a7.828 7.828 0 01-1.546 1.581c-.189.175-.917.803-2.014.823-.215.003-.884.012-1.541-.4-.928-.58-1.261-1.685-1.526-2.545 0 0-1.863 3.134-3.846 3.134-1.132 0-2.407-1.085-2.407-3.063 0-1.979 2.266-7.21 3.375-7.21.519 0 1.791.708 1.791 1.226 0 .519-.92 1.297-2.099 3.935-1.086 2.426-1.086 2.852-1.086 3.182 0 .259.189.448.426.448.519 0 1.862-1.53 3.442-3.96 1.58-2.427 2.288-4.546 2.785-4.546.497 0 1.91.541 1.91 1.06 0 .518-1.98 2.778-1.98 5.912 0 1.086.378 1.508.682 1.508.33 0 .66-.189 1.013-.54.186-.162.418-.393.635-.711.183-.268.302-.521.38-.727l.004-.003zM62.847 35.054c-1.298 3.063-2.856 5.724-4.695 5.724-2.218 0-4.01-1.626-4.01-2.26 0-1.39 3.539-2.664 6.487-4.03.66-1.768 1.013-3.416 1.013-3.416s-2.336 2.756-3.42 2.756c-1.083 0-2.83-1.037-2.83-2.379 0-2.308 2.997-6.998 2.997-7.564 0-.141.118-.26.541-.26.308 0 1.863.801 1.863 1.272 0 .47-2.9 5.135-2.9 6.69 0 .353.281.567.518.567.59 0 2.266-1.415 3.846-3.794 1.58-2.378 2.336-4.193 2.452-4.57.093-.283.166-.378.497-.378.33 0 1.628.87 1.628 1.248s-.401.87-.99 2.19c-.52 1.178-1.228 3.463-2.1 5.867 1.84-1.296 3.279-2.733 3.962-3.675.4-.566.519-.755.637-.755.19 0 .567.567.567.919 0 .352-.093.637-.59 1.27-.778 1.038-2.759 3.017-5.473 4.572v.006zm-3.115 1.485c-2.006.848-3.798 1.578-3.798 2.097 0 .33.66.47.92.47 1.157 0 2.122-1.155 2.878-2.567z" fill="#fff"/><path d="M67.516 29.986c0-2.449 2.926-6.197 4.625-6.197 1.131 0 2.9 1.037 2.9 2.049 0 .778-.708 2.334-1.958 3.534-.99.967-3.019 1.012-3.019 1.012s-.048.26-.048.541c0 .941.731 1.6 1.558 1.6 1.602 0 3.468-2.144 4.435-3.485.4-.567.52-.756.638-.756.189 0 .567.567.567.919 0 .352-.093.637-.59 1.271-.897 1.178-2.855 3.393-5.33 3.393-1.698 0-3.775-1.46-3.775-3.889l-.003.008zm5.923-3.934c0-.14-.119-.236-.308-.236-.541 0-2.83 2.852-2.83 3.463.92 0 3.138-2.474 3.138-3.227z" fill="#fff"/><path d="M76.246 30.623c-.26 0-.637-.518-.637-.8 0-.234.26-.541.4-.778 1.676-2.663 2.43-3.912 2.43-4.264 0-.14-.638-.87-.638-1.578 0-.707 1.25-3.393 1.84-3.393.59 0 2.003.637 2.003 1.319 0 .682-1.32 3.063-1.32 3.841s2.24 1.085 2.24 3.038c0 .848-1.369 2.875-1.369 3.957 0 .352.212.566.423.566.757 0 2.478-2.144 3.446-3.486.4-.566.519-.755.637-.755.19 0 .567.566.567.919 0 .352-.093.637-.59 1.27-.897 1.179-2.5 3.298-4.08 3.298-1.06 0-2.64-1.108-2.64-2.756 0-1.649 1.32-3.486 1.32-4.123s-.801-1.06-.801-1.06-.66 1.46-2.43 4.03c-.307.448-.541.756-.8.756z" fill="#fff"/><path d="M83.441 31.308c0-.611.52-1.319 1.061-1.485 1.109-1.578 2.57-3.393 3.49-4.971.449-1.72 1.273-3.394 1.84-3.394.92 0 1.91.73 1.91 1.486 0 .566-1.016 1.767-1.817 2.804 0 1.885 1.416 2.167 1.416 4.853 0 1.46-1.345 3.252-3.679 3.252-2.333 0-4.22-1.367-4.22-2.545zm3.727 1.035c.872 0 1.487-1.13 1.487-2.568 0-1.437-.166-3.393-.166-3.393a83.92 83.92 0 01-2.971 4.36c0 .518.85 1.6 1.65 1.6zM10.86 52.55v1.519a.522.522 0 01-.141.366c-.093.102-.226.15-.395.15h-1.1v3.359h-2.34v-3.36H1.042a.769.769 0 01-.463-.155.647.647 0 01-.26-.408l-.281-1.345 6.63-8.871h2.554v8.745h1.64zm-3.978 0v-4.208c0-.22.008-.457.025-.707.017-.251.04-.51.073-.784l-4.094 5.696h3.999l-.003.003zM27.075 54.469c.164 0 .3.06.41.175l1.16 1.237a5.533 5.533 0 01-2.131 1.657c-.85.378-1.857.564-3.028.564-1.058 0-2.011-.18-2.855-.541a6.189 6.189 0 01-2.156-1.505 6.68 6.68 0 01-1.365-2.289c-.32-.882-.477-1.846-.477-2.891 0-.702.076-1.367.229-2.001a6.969 6.969 0 01.668-1.748 6.816 6.816 0 011.058-1.443 6.399 6.399 0 011.4-1.096 6.672 6.672 0 011.701-.69 7.856 7.856 0 011.964-.24 7.497 7.497 0 012.776.519 6 6 0 011.118.589c.341.23.649.482.922.755l-.985 1.344a.992.992 0 01-.222.226.625.625 0 01-.37.096.82.82 0 01-.474-.167 9.735 9.735 0 00-.584-.369 4.18 4.18 0 00-.87-.37c-.349-.11-.786-.165-1.32-.165-.592 0-1.134.107-1.628.32-.493.215-.92.525-1.272.93-.353.407-.63.906-.824 1.495-.195.591-.293 1.262-.293 2.015 0 .752.107 1.437.316 2.032.211.594.499 1.096.869 1.505.366.408.795.718 1.286.93a3.938 3.938 0 001.575.315c.33 0 .632-.017.903-.048.27-.03.519-.087.75-.166.231-.079.449-.18.655-.302a4.03 4.03 0 00.62-.467c.07-.06.147-.107.223-.147.076-.04.161-.06.254-.06h-.003zM36.688 52.51v5.434h-2.926V52.51l-5.138-8.697h2.574c.254 0 .457.06.61.18.151.122.273.274.366.463l2.32 4.45c.154.298.295.577.422.837.127.259.24.518.336.777.09-.259.198-.52.316-.783a18.3 18.3 0 01.404-.834l2.302-4.45c.08-.155.195-.302.35-.437a.891.891 0 01.604-.206h2.593l-5.138 8.697.005.003zM51.9 54.469c.163 0 .298.06.408.175l1.16 1.237a5.533 5.533 0 01-2.13 1.657c-.85.378-1.857.564-3.028.564-1.058 0-2.012-.18-2.855-.541a6.188 6.188 0 01-2.156-1.505 6.68 6.68 0 01-1.365-2.289c-.32-.882-.477-1.846-.477-2.891 0-.702.076-1.367.228-2.001a6.976 6.976 0 01.669-1.748 6.813 6.813 0 011.058-1.443 6.396 6.396 0 011.4-1.096 6.671 6.671 0 011.7-.69 7.856 7.856 0 011.965-.24 7.497 7.497 0 012.776.519 6 6 0 011.117.589c.342.23.65.482.923.755l-.985 1.344a.994.994 0 01-.222.226.625.625 0 01-.37.096.821.821 0 01-.474-.167 9.762 9.762 0 00-.584-.369 4.184 4.184 0 00-.87-.37c-.35-.11-.786-.165-1.32-.165-.592 0-1.134.107-1.628.32-.494.215-.92.525-1.272.93-.353.407-.63.906-.824 1.495-.195.591-.294 1.262-.294 2.015 0 .752.108 1.437.316 2.032.212.594.5 1.096.87 1.505.366.408.795.718 1.286.93.491.211 1.016.315 1.575.315.33 0 .632-.017.902-.048a3.54 3.54 0 001.405-.468c.206-.123.412-.279.621-.467.07-.06.147-.107.223-.147.076-.04.161-.06.254-.06H51.9zM63.513 55.568v2.376h-8.394V43.813h2.925v11.755h5.472-.003zM68.242 57.947h-2.946V43.816h2.946v14.13zM78.87 46.521c-.09.15-.183.26-.28.327a.614.614 0 01-.366.102.902.902 0 01-.463-.15 11.35 11.35 0 00-.58-.326 5.927 5.927 0 00-.763-.327 2.999 2.999 0 00-1.004-.153c-.677 0-1.182.153-1.52.454-.34.302-.509.696-.509 1.184 0 .313.093.57.277.775.186.206.429.38.73.53.302.149.647.282 1.03.4.384.118.776.245 1.18.383.403.141.795.305 1.18.493.383.19.724.426 1.029.71.302.285.545.635.73 1.046.187.412.28.913.28 1.505a4.85 4.85 0 01-.336 1.807 4.275 4.275 0 01-.97 1.47c-.424.42-.945.75-1.566.99-.62.24-1.323.36-2.11.36-.45 0-.895-.044-1.34-.137A7.528 7.528 0 0171.045 57a5.205 5.205 0 01-.956-.761l.857-1.384a.892.892 0 01.283-.26.722.722 0 01.37-.1c.174 0 .36.064.555.194.195.13.42.273.674.428.254.155.548.299.884.428.335.13.736.195 1.204.195.683 0 1.21-.155 1.586-.468.375-.313.561-.775.561-1.392 0-.358-.093-.646-.276-.868a2.265 2.265 0 00-.728-.555c-.3-.15-.64-.28-1.024-.386a31.928 31.928 0 01-1.18-.355 9.42 9.42 0 01-1.179-.468 3.622 3.622 0 01-1.024-.722 3.372 3.372 0 01-.725-1.11c-.187-.443-.277-.99-.277-1.646 0-.527.105-1.034.313-1.528.21-.493.514-.932.917-1.316.404-.383.898-.69 1.487-.924.59-.234 1.264-.35 2.023-.35.852 0 1.64.133 2.365.395a5.306 5.306 0 011.84 1.096l-.723 1.373-.003.005zM91.965 46.172h-4.133v11.775h-2.935V46.172h-4.134v-2.356h11.205v2.356h-.003zM101.383 46.521c-.09.15-.183.26-.279.327a.614.614 0 01-.367.102.905.905 0 01-.463-.15 11.114 11.114 0 00-.58-.326 5.921 5.921 0 00-.763-.327 2.999 2.999 0 00-1.004-.153c-.677 0-1.182.153-1.52.454-.34.302-.509.696-.509 1.184 0 .313.093.57.277.775.186.206.429.38.73.53.302.149.647.282 1.03.4.384.118.776.245 1.18.383.403.141.795.305 1.179.493.384.19.725.426 1.03.71.302.285.545.635.731 1.046.186.412.279.913.279 1.505 0 .643-.113 1.246-.336 1.807a4.278 4.278 0 01-.97 1.47c-.423.42-.945.75-1.566.99-.62.24-1.324.36-2.11.36-.45 0-.895-.044-1.34-.137A7.524 7.524 0 0193.558 57a5.208 5.208 0 01-.956-.761l.857-1.384a.892.892 0 01.283-.26.722.722 0 01.37-.1c.174 0 .36.064.555.194.195.13.42.273.674.428.254.155.548.299.883.428.336.13.737.195 1.205.195.683 0 1.21-.155 1.586-.468.375-.313.561-.775.561-1.392 0-.358-.093-.646-.276-.868a2.265 2.265 0 00-.728-.555c-.3-.15-.64-.28-1.024-.386a31.928 31.928 0 01-1.18-.355 9.42 9.42 0 01-1.179-.468 3.622 3.622 0 01-1.024-.722 3.372 3.372 0 01-.725-1.11c-.187-.443-.277-.99-.277-1.646 0-.527.105-1.034.313-1.528.21-.493.514-.932.917-1.316.404-.383.898-.69 1.487-.924.59-.234 1.264-.35 2.023-.35.852 0 1.64.133 2.365.395a5.303 5.303 0 011.839 1.096l-.722 1.373-.003.005zM87.222 63.18c-5.46 14.974-19.64 24.942-35.71 24.942-16.068 0-30.249-9.965-35.709-24.942h-4.108C17.341 80.422 33.325 92 51.513 92 69.7 92 85.684 80.42 91.33 63.18h-4.11.002z" fill="#fff"/><path d="M51.651 63.18h-.234v26.168h.234V63.18zM62.31 63.18l14.357 17.09.18-.152L62.621 63.18h-.31zM40.435 63.18L26.232 80.093l.18.152L40.746 63.18h-.31z" fill="#fff"/></g><defs><clipPath id="clip0_14_2"><path fill="#fff" d="M0 0h103v92H0z"/></clipPath></defs></svg>