<svg width="40" height="15" viewBox="0 0 40 15" fill="none" xmlns="http://www.w3.org/2000/svg"><path d="M3.771 15H.476L5.497.455H9.46L14.474 15H11.18L7.536 3.778h-.114L3.772 15zm-.206-5.717h7.784v2.4H3.565v-2.4zM16.225 15V.455h5.739c1.098 0 2.036.196 2.812.589.782.388 1.376.94 1.783 1.655.412.71.618 1.546.618 2.507 0 .966-.209 1.797-.625 2.493-.417.691-1.02 1.221-1.811 1.59-.786.37-1.738.555-2.855.555h-3.843V7.372h3.346c.587 0 1.074-.08 1.463-.241.388-.161.677-.403.866-.725.194-.322.291-.722.291-1.2 0-.483-.097-.89-.291-1.222-.19-.331-.48-.582-.873-.752-.389-.176-.879-.263-1.47-.263H19.3V15h-3.075zm7.855-6.62L27.695 15H24.3l-3.537-6.62h3.317zM29.35 15V.455h9.801V2.99h-6.726v3.466h6.222v2.535h-6.222v3.473h6.755V15h-9.83z" fill="#fff"/></svg>