<svg width="147" height="16" viewBox="0 0 147 16" fill="none" xmlns="http://www.w3.org/2000/svg"><path d="M.216 2.017L.472.455H11.38l-.256 1.562H6.551L4.392 15H2.631L4.79 2.017H.216zM14.326 15L12.764.455h1.79l1.08 11.846h.141L20.832.455h1.989L23.957 12.3h.142l5-11.846h1.79L24.497 15h-1.818L21.4 3.41h-.113L16.145 15h-1.819zm29.125-7.16c-.256 1.516-.746 2.825-1.47 3.928-.725 1.099-1.61 1.946-2.656 2.543a6.795 6.795 0 01-3.402.888c-1.26 0-2.332-.308-3.218-.923-.88-.62-1.51-1.497-1.889-2.628-.374-1.137-.433-2.481-.177-4.034.255-1.516.745-2.822 1.47-3.92.724-1.104 1.612-1.952 2.663-2.543a6.819 6.819 0 013.423-.895c1.25 0 2.313.31 3.19.93.88.616 1.507 1.492 1.881 2.628.38 1.132.44 2.474.185 4.027zm-1.676-.226c.208-1.24.177-2.285-.093-3.132-.27-.848-.717-1.49-1.342-1.925-.625-.436-1.368-.654-2.23-.654-.9 0-1.752.23-2.557.69-.805.454-1.494 1.124-2.066 2.01-.573.88-.964 1.96-1.172 3.238-.209 1.24-.178 2.285.092 3.132s.717 1.49 1.342 1.925c.625.435 1.369.653 2.23.653.9 0 1.752-.227 2.557-.682.805-.459 1.494-1.129 2.067-2.01.573-.885.963-1.967 1.172-3.245zM64.197 5h-1.733c-.02-.507-.123-.952-.313-1.335a2.845 2.845 0 00-.767-.966 3.229 3.229 0 00-1.093-.597 4.287 4.287 0 00-1.322-.199c-.9 0-1.751.23-2.556.69-.805.454-1.494 1.124-2.067 2.01-.573.88-.964 1.96-1.172 3.238-.208 1.24-.178 2.285.092 3.132s.718 1.49 1.343 1.925c.625.435 1.368.653 2.23.653.497 0 .985-.066 1.463-.199a4.884 4.884 0 002.472-1.563c.33-.387.591-.833.78-1.335h1.762a7.24 7.24 0 01-1.058 1.996 6.939 6.939 0 01-1.527 1.499 6.804 6.804 0 01-3.949 1.25c-1.26 0-2.332-.308-3.217-.923-.881-.62-1.51-1.497-1.89-2.628-.374-1.137-.433-2.481-.177-4.034.256-1.516.746-2.822 1.47-3.92.724-1.104 1.612-1.952 2.663-2.543a6.818 6.818 0 013.424-.895c.738 0 1.418.106 2.038.32.62.212 1.16.525 1.62.937.459.407.816.904 1.072 1.491.26.583.398 1.248.412 1.996zM66.56.455h2.017l2.926 6.79h.17l5.143-6.79h2.017l-6.676 8.55L71.162 15h-1.761l.994-5.994L66.56.455zM91.365 5h-1.733c-.02-.507-.123-.952-.313-1.335a2.843 2.843 0 00-.767-.966 3.229 3.229 0 00-1.094-.597 4.288 4.288 0 00-1.32-.199c-.9 0-1.753.23-2.557.69-.805.454-1.494 1.124-2.067 2.01-.573.88-.964 1.96-1.172 3.238-.208 1.24-.178 2.285.092 3.132s.718 1.49 1.343 1.925c.625.435 1.368.653 2.23.653.497 0 .985-.066 1.463-.199.483-.132.933-.329 1.35-.59.42-.264.795-.589 1.121-.972.332-.388.592-.834.782-1.335h1.761a7.238 7.238 0 01-1.058 1.995 6.943 6.943 0 01-1.527 1.499 6.805 6.805 0 01-3.949 1.25c-1.26 0-2.332-.308-3.217-.923-.881-.62-1.51-1.497-1.89-2.628-.374-1.137-.433-2.481-.177-4.034.255-1.516.746-2.822 1.47-3.92.724-1.104 1.612-1.952 2.663-2.543a6.818 6.818 0 013.424-.895c.738 0 1.418.106 2.038.32.62.212 1.16.525 1.62.937.459.407.816.904 1.072 1.491.26.583.397 1.248.412 1.996zm1.198 10L94.978.455h1.761L94.58 13.437h6.762L101.086 15h-8.523zM107.99.455L105.575 15h-1.762L106.228.455h1.761zm10.861 3.75c0-.782-.258-1.374-.774-1.776-.516-.407-1.214-.61-2.095-.61-.644 0-1.224.103-1.74.312a3.347 3.347 0 00-1.264.86 2.415 2.415 0 00-.604 1.242c-.061.388-.021.722.121 1.001.142.275.343.505.604.69.265.18.549.328.852.447.303.113.582.206.838.277l1.42.397c.356.1.751.237 1.187.412.435.176.842.415 1.221.718.379.298.668.682.867 1.15.203.469.248 1.044.135 1.726a4.523 4.523 0 01-.973 2.13c-.512.635-1.189 1.14-2.032 1.514-.838.374-1.816.56-2.933.56-1.042 0-1.918-.167-2.628-.504-.705-.336-1.226-.804-1.562-1.406-.332-.601-.46-1.3-.384-2.095h1.818c-.047.55.062 1.004.327 1.364.265.355.635.62 1.108.795.474.17.999.256 1.577.256.672 0 1.292-.11 1.861-.327.572-.222 1.046-.53 1.42-.923.379-.398.611-.862.696-1.392.085-.483.019-.876-.199-1.18-.218-.302-.533-.548-.944-.738a9.678 9.678 0 00-1.357-.497l-1.705-.511c-1.079-.327-1.901-.793-2.464-1.4-.559-.606-.76-1.399-.604-2.379a4.21 4.21 0 011.03-2.13 5.516 5.516 0 012.024-1.421 6.599 6.599 0 012.6-.511c.937 0 1.74.17 2.407.511.668.336 1.165.803 1.492 1.4.327.591.447 1.27.362 2.038h-1.705zm4.374-2.188l.255-1.562h10.909l-.255 1.562h-4.574L127.4 15h-1.762l2.16-12.983h-4.574zm21.212 2.188c0-.782-.258-1.374-.774-1.776-.516-.407-1.214-.61-2.095-.61-.644 0-1.224.103-1.74.312a3.347 3.347 0 00-1.264.86 2.415 2.415 0 00-.604 1.242c-.061.388-.021.722.121 1.001.142.275.343.505.604.69.265.18.549.328.852.447.303.113.582.206.838.277l1.42.397c.356.1.751.237 1.186.412.436.176.843.415 1.222.718.379.298.668.682.867 1.15.203.469.248 1.044.134 1.726a4.504 4.504 0 01-.973 2.13c-.511.635-1.188 1.14-2.031 1.514-.838.374-1.816.56-2.933.56-1.042 0-1.918-.167-2.628-.504-.705-.336-1.226-.804-1.562-1.406-.332-.601-.46-1.3-.384-2.095h1.818c-.047.55.062 1.004.327 1.364.265.355.634.62 1.108.795.473.17.999.256 1.577.256.672 0 1.292-.11 1.86-.327.573-.222 1.047-.53 1.421-.923.379-.398.611-.862.696-1.392.085-.483.019-.876-.199-1.18-.218-.302-.533-.548-.945-.738a9.617 9.617 0 00-1.356-.497l-1.705-.511c-1.079-.327-1.901-.793-2.464-1.4-.559-.606-.76-1.399-.604-2.379a4.21 4.21 0 011.03-2.13A5.516 5.516 0 01139.28.766a6.599 6.599 0 012.6-.511c.937 0 1.74.17 2.407.511.668.336 1.165.803 1.492 1.4.326.591.447 1.27.362 2.038h-1.705z" fill="#fff"/></svg>