<svg width="103" height="16" viewBox="0 0 103 16" fill="none" xmlns="http://www.w3.org/2000/svg"><path d="M.71 2.99V.455h11.946V2.99H8.203V15h-3.04V2.99H.71zM14.624 15V.455h3.075v6.001h6.243V.455h3.068V15h-3.068V8.991h-6.243V15h-3.075zm14.921 0V.455h9.802V2.99H32.62v3.466h6.221v2.535h-6.221v3.473h6.754V15h-9.83zM54.311 4.638c-.057-.573-.3-1.018-.731-1.335-.431-.318-1.016-.476-1.755-.476-.502 0-.925.07-1.271.213-.346.137-.61.329-.796.575-.18.246-.27.526-.27.838-.009.26.046.488.164.682.123.194.291.362.504.504.213.138.46.258.739.362.28.1.577.185.895.256l1.307.313a9.22 9.22 0 011.747.568c.53.237.99.528 1.378.873.388.346.688.753.902 1.222.217.469.329 1.006.333 1.612-.004.89-.232 1.662-.681 2.316-.446.648-1.09 1.152-1.932 1.512-.838.355-1.85.533-3.033.533-1.174 0-2.197-.18-3.068-.54-.867-.36-1.544-.892-2.031-1.598-.483-.71-.737-1.588-.76-2.635h2.976c.033.488.172.895.419 1.222.25.322.584.566 1.001.731.421.161.897.242 1.428.242.52 0 .973-.076 1.356-.227.388-.152.689-.363.902-.633.213-.27.32-.58.32-.93 0-.327-.097-.601-.291-.824-.19-.222-.47-.412-.839-.568a8.522 8.522 0 00-1.342-.426l-1.584-.398c-1.226-.298-2.194-.765-2.904-1.399s-1.063-1.49-1.059-2.564c-.005-.88.23-1.65.703-2.308.479-.658 1.134-1.172 1.968-1.541.833-.37 1.78-.554 2.84-.554 1.08 0 2.022.184 2.827.554.81.369 1.44.883 1.89 1.54.45.659.681 1.421.695 2.288h-2.947zM61.701 15h-3.295L63.425.455h3.964L72.404 15H69.11L65.465 3.778h-.113L61.7 15zm-.206-5.717h7.784v2.4h-7.784v-2.4zM74.155.455h3.792l4.006 9.772h.17L86.13.455h3.793V15h-2.983V5.533h-.12l-3.765 9.396h-2.031l-3.764-9.432h-.121V15h-2.983V.455zM92.455 15V.455h9.802V2.99h-6.726v3.466h6.221v2.535h-6.221v3.473h6.754V15h-9.83z" fill="#F7CC52"/></svg>