<svg width="98" height="15" viewBox="0 0 98 15" fill="none" xmlns="http://www.w3.org/2000/svg"><path d="M.264 15V.455H3.34v12.01h6.236V15H.265zm14.226 0h-3.295L16.215.455h3.964L25.193 15h-3.295L18.254 3.778h-.113L14.49 15zm-.206-5.717h7.784v2.4h-7.784v-2.4zM28.754 15L24.59.455h3.36l2.407 10.106h.121L33.135.455h2.877l2.649 10.127h.128L41.196.455h3.36L40.394 15h-2.997l-2.77-9.51h-.114L31.75 15h-2.997zm22.077 0V.455h9.63V2.99h-6.555v3.466h5.916v2.535h-5.916V15H50.83zM65.605.455V15H62.53V.455h3.075zM68.135 15V.455h5.739c1.098 0 2.036.196 2.812.589.782.388 1.376.94 1.783 1.655.412.71.618 1.546.618 2.507 0 .966-.208 1.797-.625 2.493-.417.691-1.02 1.221-1.811 1.59-.786.37-1.738.555-2.855.555h-3.843V7.372H73.3c.587 0 1.075-.08 1.463-.241.388-.161.677-.403.866-.725.194-.322.291-.722.291-1.2 0-.483-.097-.89-.29-1.222-.19-.331-.481-.582-.874-.752-.389-.176-.879-.263-1.47-.263H71.21V15h-3.076zm7.855-6.62L79.606 15H76.21l-3.537-6.62h3.316zM81.26.456h3.793l4.006 9.772h.17L93.235.455h3.792V15h-2.983V5.533h-.12l-3.765 9.396h-2.03l-3.765-9.432h-.12V15H81.26V.455z" fill="#F7CC52"/></svg>