<svg width="163" height="15" viewBox="0 0 163 15" fill="none" xmlns="http://www.w3.org/2000/svg"><path d="M3.394 14H.428L4.948.91h3.566L13.027 14h-2.966L6.782 3.9H6.68L3.394 14zM3.21 8.854h7.005v2.16H3.21v-2.16zM19.243 14h-4.64V.91h4.679c1.316 0 2.45.261 3.4.785a5.303 5.303 0 012.193 2.244c.515.976.773 2.143.773 3.503 0 1.363-.258 2.535-.773 3.515a5.315 5.315 0 01-2.206 2.257c-.954.524-2.096.786-3.426.786zm-1.873-2.371h1.758c.818 0 1.507-.145 2.065-.435.562-.294.984-.748 1.265-1.362.286-.618.429-1.414.429-2.39 0-.968-.143-1.758-.428-2.372-.282-.613-.701-1.065-1.26-1.355-.558-.29-1.246-.434-2.064-.434H17.37v8.348zM29.325.909l3.164 9.946h.122L35.78.91h3.068L34.337 14H30.77L26.25.91h3.075zm22.391 6.546c0 1.427-.27 2.642-.811 3.643-.537 1.001-1.27 1.766-2.2 2.295-.924.524-1.964.786-3.118.786-1.164 0-2.208-.264-3.133-.793-.924-.528-1.655-1.293-2.192-2.294-.537-1.002-.806-2.214-.806-3.637 0-1.428.269-2.643.806-3.644.537-1.001 1.268-1.764 2.192-2.288.925-.529 1.97-.793 3.133-.793 1.154 0 2.194.264 3.119.793.929.524 1.662 1.287 2.199 2.288.54 1.002.811 2.216.811 3.644zm-2.806 0c0-.925-.138-1.705-.415-2.34-.273-.635-.658-1.116-1.157-1.445-.499-.328-1.083-.492-1.752-.492s-1.252.164-1.75.492c-.5.329-.887.81-1.164 1.445-.273.635-.41 1.415-.41 2.34 0 .924.137 1.704.41 2.339.277.635.665 1.117 1.163 1.445.499.328 1.082.492 1.752.492.668 0 1.252-.164 1.75-.492.5-.329.885-.81 1.158-1.445.277-.635.415-1.415.415-2.34zm16.407-1.963h-2.8a2.737 2.737 0 00-.313-.965 2.455 2.455 0 00-.607-.729 2.67 2.67 0 00-.857-.46 3.276 3.276 0 00-1.041-.16c-.678 0-1.268.169-1.771.505-.503.333-.893.818-1.17 1.458-.277.635-.415 1.406-.415 2.314 0 .933.138 1.717.415 2.352.281.635.673 1.114 1.176 1.438.503.324 1.085.486 1.745.486.371 0 .714-.05 1.03-.147.32-.098.602-.241.85-.428.247-.192.451-.425.613-.697.166-.273.282-.584.345-.933l2.8.012a5.224 5.224 0 01-1.7 3.228 5.443 5.443 0 01-1.726 1.036c-.665.251-1.417.377-2.256.377-1.168 0-2.212-.264-3.133-.793-.916-.528-1.64-1.293-2.173-2.294-.528-1.002-.792-2.214-.792-3.637 0-1.428.268-2.643.805-3.644.537-1.001 1.266-1.764 2.186-2.288.92-.529 1.956-.793 3.107-.793.758 0 1.461.107 2.109.32.652.213 1.23.524 1.732.933.503.405.912.901 1.228 1.49.32.587.524 1.26.613 2.02zM69.312 14h-2.966L70.866.91h3.566L78.945 14h-2.966l-3.28-10.1h-.101L69.312 14zm-.185-5.146h7.005v2.16h-7.005v-2.16zm9.295-5.663V.91h10.752v2.282h-4.008V14H82.43V3.191h-4.008zM93.712.91V14h-2.768V.91h2.768zm13.227 0V14h-2.391l-5.695-8.24h-.096V14H95.99V.91h2.43l5.65 8.232h.115V.909h2.755zm10.967 4.232a2.855 2.855 0 00-.377-.825 2.322 2.322 0 00-.595-.614c-.23-.17-.494-.3-.792-.39a3.35 3.35 0 00-.978-.134c-.669 0-1.257.166-1.764.499-.503.332-.895.816-1.176 1.45-.282.632-.422 1.403-.422 2.315 0 .912.138 1.687.415 2.326.277.64.669 1.128 1.176 1.464.507.333 1.106.499 1.796.499.627 0 1.162-.111 1.605-.333a2.389 2.389 0 001.023-.952c.238-.41.358-.893.358-1.451l.562.083h-3.375V6.994h5.478v1.65c0 1.15-.243 2.139-.729 2.965a4.963 4.963 0 01-2.007 1.905c-.852.443-1.828.665-2.927.665-1.228 0-2.306-.27-3.235-.812-.929-.545-1.653-1.319-2.173-2.32-.516-1.006-.773-2.199-.773-3.58 0-1.06.153-2.007.46-2.838.311-.835.746-1.542 1.304-2.122a5.635 5.635 0 011.949-1.323 6.32 6.32 0 012.41-.454 6.39 6.39 0 012.071.326 5.514 5.514 0 011.7.908c.499.392.906.858 1.221 1.4.316.537.518 1.129.608 1.777h-2.813zM127.085 14V.91h8.668V3.19h-5.9v3.12h5.324v2.281h-5.324V14h-2.768zm22.559-6.545c0 1.427-.27 2.642-.812 3.643-.537 1.001-1.269 1.766-2.198 2.295-.925.524-1.965.786-3.12.786-1.163 0-2.207-.264-3.132-.793-.925-.528-1.655-1.293-2.192-2.294-.537-1.002-.806-2.214-.806-3.637 0-1.428.269-2.643.806-3.644.537-1.001 1.267-1.764 2.192-2.288.925-.529 1.969-.793 3.132-.793 1.155 0 2.195.264 3.12.793.929.524 1.661 1.287 2.198 2.288.542 1.002.812 2.216.812 3.644zm-2.806 0c0-.925-.138-1.705-.415-2.34-.273-.635-.659-1.116-1.157-1.445-.499-.328-1.083-.492-1.752-.492s-1.253.164-1.751.492c-.499.329-.887.81-1.164 1.445-.272.635-.409 1.415-.409 2.34 0 .924.137 1.704.409 2.339.277.635.665 1.117 1.164 1.445.498.328 1.082.492 1.751.492.669 0 1.253-.164 1.752-.492.498-.329.884-.81 1.157-1.445.277-.635.415-1.415.415-2.34zM151.694 14V.91h5.165c.989 0 1.833.176 2.531.53.704.35 1.238.846 1.605 1.489.371.64.556 1.391.556 2.256 0 .87-.188 1.618-.563 2.244-.375.622-.918 1.1-1.63 1.432-.707.332-1.563.498-2.569.498h-3.458V7.135h3.01c.529 0 .968-.072 1.317-.217.35-.145.61-.363.78-.652.175-.29.262-.65.262-1.08 0-.435-.087-.802-.262-1.1a1.603 1.603 0 00-.786-.678c-.35-.157-.791-.236-1.323-.236h-1.867V14h-2.768zm7.07-5.957L162.018 14h-3.056l-3.183-5.957h2.985z" fill="#fff"/></svg>