<svg width="76" height="13" viewBox="0 0 76 13" fill="none" xmlns="http://www.w3.org/2000/svg"><path d="M3.068 10.107c-.559 0-1.04-.119-1.442-.356a2.4 2.4 0 01-.923-.994c-.213-.424-.32-.911-.32-1.463 0-.559.108-1.049.324-1.47a2.4 2.4 0 01.927-.99c.4-.24.875-.36 1.427-.36.476 0 .893.087 1.25.26.358.172.64.415.849.728.208.312.323.68.344 1.1H4.077a1.102 1.102 0 00-.32-.656c-.17-.169-.394-.253-.671-.253-.234 0-.44.064-.614.192a1.22 1.22 0 00-.405.55 2.353 2.353 0 00-.146.878c0 .348.048.644.142.888.097.243.233.43.409.557.175.128.38.192.614.192a.998.998 0 00.465-.107.899.899 0 00.345-.309c.092-.137.152-.302.18-.493h1.428a2.235 2.235 0 01-.34 1.1 2.06 2.06 0 01-.835.74c-.355.177-.775.266-1.26.266zm4.339 1.939c-.192 0-.372-.016-.54-.047a1.964 1.964 0 01-.412-.11l.341-1.13c.178.055.337.085.48.09a.609.609 0 00.372-.1c.107-.07.193-.192.26-.362l.088-.23L6.04 4.544h1.59l1.13 4.006h.057l1.14-4.006h1.601l-2.12 6.044c-.102.294-.24.55-.415.768-.173.22-.392.389-.657.507-.266.121-.585.181-.96.181zm7.214-1.94c-.559 0-1.04-.118-1.442-.355a2.4 2.4 0 01-.923-.994c-.213-.424-.32-.911-.32-1.463 0-.559.108-1.049.323-1.47a2.4 2.4 0 01.927-.99c.4-.24.876-.36 1.428-.36.476 0 .892.087 1.25.26.357.172.64.415.848.728.209.312.324.68.345 1.1h-1.428a1.102 1.102 0 00-.32-.656c-.17-.169-.393-.253-.67-.253-.235 0-.44.064-.615.192a1.22 1.22 0 00-.404.55 2.353 2.353 0 00-.146.878c0 .348.047.644.142.888.097.243.233.43.408.557.176.128.38.192.615.192a.998.998 0 00.465-.107.899.899 0 00.344-.309c.093-.137.153-.302.181-.493h1.428a2.236 2.236 0 01-.34 1.1 2.06 2.06 0 01-.835.74c-.355.177-.776.266-1.261.266zm4.917-7.379V10h-1.512V2.727h1.512zM20.75 10V4.545h1.513V10H20.75zm.76-6.158a.822.822 0 01-.579-.223.725.725 0 01-.238-.544.71.71 0 01.238-.536.815.815 0 01.58-.227c.224 0 .416.076.574.227a.72.72 0 010 1.08.81.81 0 01-.575.223zm3.478 3.005V10h-1.513V4.545h1.441v.963h.064c.121-.317.324-.568.608-.753.284-.187.628-.28 1.033-.28.379 0 .71.082.99.248.283.166.502.402.658.71.156.306.234.67.234 1.094V10H26.99V6.797c.003-.334-.082-.594-.255-.781-.173-.19-.411-.284-.714-.284-.204 0-.384.043-.54.13a.916.916 0 00-.362.384c-.085.166-.13.366-.131.6zm7.165 5.312c-.49 0-.91-.067-1.26-.202a2.092 2.092 0 01-.832-.544 1.67 1.67 0 01-.401-.774l1.4-.188c.042.109.11.21.202.305.092.095.214.17.365.228.154.059.341.088.561.088.33 0 .6-.08.814-.241.215-.159.323-.425.323-.799v-.998h-.064a1.437 1.437 0 01-.299.43 1.502 1.502 0 01-.51.33 1.966 1.966 0 01-.747.128 2.24 2.24 0 01-1.118-.284c-.334-.192-.6-.484-.8-.877-.196-.396-.294-.895-.294-1.499 0-.618.1-1.134.302-1.548.201-.415.469-.725.802-.93a2.074 2.074 0 011.105-.31c.305 0 .561.053.767.157.206.101.372.23.497.383.128.152.226.3.295.448h.057v-.917h1.502v5.508c0 .464-.114.852-.341 1.165a2.052 2.052 0 01-.945.703c-.4.159-.86.238-1.381.238zm.032-3.373c.244 0 .45-.06.618-.182.17-.123.3-.298.39-.525.093-.23.139-.504.139-.824 0-.32-.045-.597-.135-.831-.09-.237-.22-.42-.39-.55a.994.994 0 00-.622-.196.981.981 0 00-.629.203c-.17.132-.3.317-.387.554-.087.236-.131.51-.131.82 0 .315.044.587.131.817.09.227.22.403.387.529.17.123.38.185.629.185zm5.351-6.059V10h-1.512V2.727h1.512zm2.768 7.376c-.348 0-.659-.06-.93-.181a1.498 1.498 0 01-.647-.543c-.156-.242-.234-.543-.234-.902 0-.303.055-.558.166-.764.112-.206.263-.372.455-.497.192-.126.41-.22.653-.284.247-.064.505-.11.774-.135.318-.033.574-.064.768-.092.194-.031.335-.076.422-.135a.297.297 0 00.132-.263v-.021c0-.225-.072-.4-.213-.523-.14-.123-.339-.184-.597-.184-.272 0-.489.06-.65.18a.833.833 0 00-.32.448l-1.399-.113c.071-.332.211-.618.42-.86.208-.243.476-.43.805-.56a3.083 3.083 0 011.151-.2c.303 0 .593.036.87.107.28.071.527.181.742.33.218.15.39.341.515.576.126.232.188.51.188.834V10h-1.434v-.756h-.043a1.54 1.54 0 01-.352.45 1.627 1.627 0 01-.529.302 2.187 2.187 0 01-.713.107zm.433-1.044c.222 0 .419-.044.59-.131.17-.09.304-.211.4-.363a.934.934 0 00.146-.515v-.578a.808.808 0 01-.195.085c-.08.023-.172.046-.273.067a13.78 13.78 0 01-.306.054 82.31 82.31 0 00-.277.039 1.871 1.871 0 00-.465.124.744.744 0 00-.31.23.563.563 0 00-.11.356c0 .206.075.363.225.472.151.107.343.16.575.16zm4.888.941l-1.484-5.455h1.53l.845 3.665h.05l.88-3.665h1.503l.895 3.644h.046l.83-3.644h1.528L50.767 10h-1.602l-.937-3.43h-.068L47.224 10h-1.598zm7.572.092a.83.83 0 01-.604-.248.83.83 0 01-.248-.604c0-.232.083-.43.248-.597a.83.83 0 01.604-.248.83.83 0 01.596.248c.171.166.256.365.256.597 0 .156-.04.3-.12.43a.918.918 0 01-.31.309.813.813 0 01-.422.113zm4.559.014c-.559 0-1.04-.118-1.442-.355a2.4 2.4 0 01-.923-.994c-.213-.424-.32-.911-.32-1.463 0-.559.108-1.049.323-1.47a2.4 2.4 0 01.927-.99c.4-.24.876-.36 1.428-.36.475 0 .892.087 1.25.26.357.172.64.415.848.728.209.312.323.68.345 1.1h-1.428a1.102 1.102 0 00-.32-.656c-.17-.169-.394-.253-.67-.253-.235 0-.44.064-.615.192a1.22 1.22 0 00-.405.55 2.353 2.353 0 00-.145.878c0 .348.047.644.142.888.097.243.233.43.408.557.175.128.38.192.614.192a.997.997 0 00.466-.107.899.899 0 00.344-.309c.092-.137.153-.302.181-.493h1.428a2.236 2.236 0 01-.341 1.1 2.06 2.06 0 01-.835.74c-.355.177-.775.266-1.26.266zm5.869 0c-.552 0-1.029-.117-1.431-.351a2.406 2.406 0 01-.927-.987c-.218-.424-.327-.915-.327-1.474 0-.563.11-1.056.327-1.477.218-.424.527-.753.927-.987.402-.237.88-.356 1.43-.356.552 0 1.028.119 1.428.356.403.234.713.563.93.987.219.421.328.914.328 1.477 0 .559-.11 1.05-.327 1.474a2.4 2.4 0 01-.93.987c-.4.234-.877.351-1.428.351zm.007-1.171a.94.94 0 00.628-.213c.169-.145.295-.341.38-.59.088-.248.132-.531.132-.849 0-.317-.044-.6-.132-.848a1.321 1.321 0 00-.38-.59.93.93 0 00-.628-.216.963.963 0 00-.64.216c-.17.145-.299.341-.386.59a2.611 2.611 0 00-.128.848c0 .318.042.6.128.85.087.248.216.444.387.589a.973.973 0 00.639.213zM67.293 10V4.545h1.442v.963h.064c.113-.32.303-.572.568-.757.265-.184.582-.277.952-.277.374 0 .692.094.955.281.263.185.438.436.525.753h.057c.112-.313.313-.562.604-.75.294-.189.64-.284 1.04-.284.51 0 .923.163 1.24.487.32.322.48.779.48 1.37V10h-1.51V6.63c0-.303-.08-.53-.241-.682a.847.847 0 00-.604-.227c-.275 0-.489.087-.643.263-.154.172-.23.4-.23.685V10h-1.467V6.598c0-.268-.077-.48-.231-.64a.792.792 0 00-.6-.237.833.833 0 00-.455.128.878.878 0 00-.316.351c-.078.15-.117.325-.117.526V10h-1.513z" fill="#fff"/></svg>