<svg width="90" height="15" viewBox="0 0 90 15" fill="none" xmlns="http://www.w3.org/2000/svg"><path d="M12.688 5.492h-2.8a2.738 2.738 0 00-.313-.965 2.455 2.455 0 00-.607-.729 2.672 2.672 0 00-.856-.46 3.276 3.276 0 00-1.042-.16c-.678 0-1.268.169-1.771.505-.503.333-.893.818-1.17 1.458-.277.635-.415 1.406-.415 2.314 0 .933.138 1.717.415 2.352.282.635.674 1.114 1.176 1.438.503.324 1.085.486 1.745.486.371 0 .714-.05 1.03-.147.32-.098.603-.241.85-.428.247-.192.451-.425.613-.697.167-.273.282-.584.345-.933l2.8.012a5.224 5.224 0 01-1.7 3.228 5.443 5.443 0 01-1.726 1.036c-.665.251-1.417.377-2.256.377-1.168 0-2.212-.264-3.132-.793-.917-.528-1.641-1.293-2.174-2.294C1.172 10.09.908 8.878.908 7.455c0-1.428.268-2.643.805-3.644C2.25 2.81 2.98 2.047 3.9 1.523 4.82.994 5.855.73 7.006.73c.758 0 1.461.107 2.11.32.651.213 1.229.524 1.731.933.503.405.912.901 1.228 1.49.32.587.524 1.26.613 2.02zM13.906.91h3.1l2.985 5.638h.128L23.104.909h3.1L21.43 9.372V14h-2.748V9.372L13.906.91zm24.57 4.583h-2.8a2.737 2.737 0 00-.314-.965 2.455 2.455 0 00-.607-.729 2.67 2.67 0 00-.856-.46 3.276 3.276 0 00-1.042-.16c-.678 0-1.268.169-1.77.505-.504.333-.894.818-1.17 1.458-.278.635-.416 1.406-.416 2.314 0 .933.138 1.717.415 2.352.282.635.674 1.114 1.177 1.438.502.324 1.084.486 1.744.486.371 0 .714-.05 1.03-.147.32-.098.603-.241.85-.428.247-.192.452-.425.613-.697.167-.273.282-.584.346-.933l2.8.012a5.224 5.224 0 01-1.7 3.228 5.443 5.443 0 01-1.727 1.036c-.665.251-1.417.377-2.256.377-1.168 0-2.212-.264-3.132-.793-.917-.528-1.64-1.293-2.174-2.294-.528-1.002-.792-2.214-.792-3.637 0-1.428.268-2.643.805-3.644.537-1.001 1.266-1.764 2.186-2.288.92-.529 1.956-.793 3.107-.793.758 0 1.461.107 2.11.32.651.213 1.229.524 1.731.933.503.405.912.901 1.228 1.49.32.587.524 1.26.613 2.02zM40.46 14V.91h2.768v10.808h5.612V14h-8.38zM53.44.91V14h-2.767V.91h2.768zm9.38 3.764c-.052-.516-.271-.916-.659-1.202-.388-.285-.914-.428-1.579-.428-.452 0-.833.064-1.144.192-.311.123-.55.296-.716.518a1.246 1.246 0 00-.243.754c-.008.234.04.439.147.613.111.175.262.326.454.454.192.124.413.233.665.326.251.09.52.166.805.23l1.176.282a8.294 8.294 0 011.573.511c.477.213.89.475 1.24.786.35.311.62.678.812 1.1.196.422.296.905.3 1.45-.004.802-.209 1.496-.614 2.085-.4.583-.98 1.037-1.738 1.361-.754.32-1.664.48-2.73.48-1.056 0-1.977-.163-2.76-.486-.78-.324-1.39-.804-1.83-1.439-.434-.639-.662-1.43-.683-2.371h2.678c.03.439.156.805.377 1.1.226.29.527.509.902.658.379.145.807.217 1.285.217.468 0 .875-.068 1.22-.204.35-.137.62-.326.812-.57.192-.242.288-.521.288-.837 0-.294-.088-.54-.262-.741-.17-.2-.422-.371-.755-.512a7.668 7.668 0 00-1.208-.383l-1.425-.358c-1.104-.269-1.975-.688-2.614-1.26-.64-.57-.957-1.34-.953-2.307-.004-.792.207-1.485.633-2.077.43-.593 1.02-1.055 1.77-1.387.75-.333 1.603-.499 2.557-.499.972 0 1.82.166 2.544.499.73.332 1.296.794 1.7 1.387.406.592.614 1.278.627 2.058H62.82zm4.194-1.483V.91h10.752v2.282h-4.008V14h-2.736V3.191h-4.008zm19.624 1.483c-.051-.516-.27-.916-.659-1.202-.387-.285-.914-.428-1.578-.428-.452 0-.834.064-1.145.192-.31.123-.55.296-.716.518a1.246 1.246 0 00-.242.754c-.009.234.04.439.147.613.11.175.262.326.453.454.192.124.414.233.665.326.252.09.52.166.806.23l1.176.282a8.295 8.295 0 011.572.511c.477.213.89.475 1.24.786.35.311.62.678.812 1.1.196.422.296.905.3 1.45-.004.802-.208 1.496-.613 2.085-.4.583-.98 1.037-1.739 1.361-.754.32-1.664.48-2.73.48-1.056 0-1.977-.163-2.76-.486-.78-.324-1.39-.804-1.829-1.439-.434-.639-.662-1.43-.684-2.371h2.679c.03.439.155.805.377 1.1.226.29.526.509.901.658.38.145.808.217 1.285.217.469 0 .876-.068 1.22-.204.35-.137.62-.326.813-.57.191-.242.287-.521.287-.837 0-.294-.087-.54-.262-.741-.17-.2-.422-.371-.754-.512a7.668 7.668 0 00-1.208-.383l-1.426-.358c-1.103-.269-1.975-.688-2.614-1.26-.64-.57-.957-1.34-.953-2.307-.004-.792.207-1.485.633-2.077.43-.593 1.02-1.055 1.77-1.387.75-.333 1.603-.499 2.558-.499.971 0 1.82.166 2.544.499.728.332 1.295.794 1.7 1.387.405.592.614 1.278.626 2.058h-2.652z" fill="#F7CC52"/></svg>