<svg width="29" height="16" viewBox="0 0 29 16" fill="none" xmlns="http://www.w3.org/2000/svg"><path d="M12.43.455V15H9.774L3.446 5.845h-.107V15H.264V.455h2.7L9.24 9.602h.128V.455h3.061zm15.908 7.272c0 1.586-.3 2.936-.902 4.049-.597 1.112-1.411 1.962-2.444 2.55-1.027.582-2.182.873-3.465.873-1.293 0-2.453-.294-3.48-.88-1.028-.588-1.84-1.438-2.437-2.55-.596-1.113-.894-2.46-.894-4.042 0-1.586.298-2.935.894-4.048.597-1.113 1.41-1.96 2.437-2.543 1.027-.587 2.187-.88 3.48-.88 1.283 0 2.438.293 3.465.88 1.033.583 1.847 1.43 2.444 2.543.601 1.113.902 2.462.902 4.048zm-3.118 0c0-1.027-.154-1.894-.462-2.6-.303-.705-.731-1.24-1.285-1.604-.554-.365-1.203-.547-1.946-.547-.744 0-1.392.182-1.946.547-.554.364-.985.9-1.293 1.605-.303.705-.454 1.572-.454 2.6 0 1.027.151 1.893.454 2.599.308.705.739 1.24 1.293 1.605.554.364 1.202.547 1.946.547.743 0 1.392-.183 1.946-.547.554-.365.982-.9 1.285-1.605.308-.706.462-1.572.462-2.6z" fill="#fff"/></svg>