<svg width="76" height="15" viewBox="0 0 76 15" fill="none" xmlns="http://www.w3.org/2000/svg"><path d="M2.906.91V14H.138V.91h2.768zm13.226 0V14h-2.39L8.046 5.76H7.95V14H5.183V.91h2.429l5.65 8.232h.115V.909h2.755zm7.528 0h2.736v9.127c0 .844-.19 1.577-.569 2.199a3.759 3.759 0 01-1.566 1.438c-.669.337-1.446.505-2.333.505-.788 0-1.504-.139-2.148-.415a3.433 3.433 0 01-1.52-1.279c-.376-.575-.561-1.297-.557-2.167h2.755c.009.345.079.642.211.889.136.243.322.43.556.562.239.128.52.192.844.192.34 0 .628-.072.863-.217.239-.15.42-.367.543-.652.124-.286.185-.638.185-1.055V.909zm13.11 0h2.768v8.5c0 .955-.228 1.79-.684 2.506-.451.716-1.084 1.274-1.898 1.675-.814.396-1.762.594-2.845.594-1.086 0-2.036-.198-2.85-.594-.814-.4-1.447-.959-1.899-1.675-.451-.716-.677-1.55-.677-2.505V.909h2.767v8.265c0 .499.11.942.326 1.33.222.387.533.692.934.914.4.221.867.332 1.4.332.536 0 1.003-.11 1.4-.332.4-.222.709-.527.926-.914.222-.388.333-.831.333-1.33V.909zM41.816 14V.91h5.165c.989 0 1.833.176 2.532.53.703.35 1.237.846 1.604 1.489.37.64.556 1.391.556 2.256 0 .87-.187 1.618-.562 2.244-.375.622-.919 1.1-1.63 1.432-.708.332-1.564.498-2.57.498h-3.458V7.135h3.01c.529 0 .968-.072 1.317-.217.35-.145.61-.363.78-.652.175-.29.262-.65.262-1.08 0-.435-.087-.802-.262-1.1a1.607 1.607 0 00-.786-.678c-.35-.157-.79-.236-1.323-.236h-1.867V14h-2.767zm7.07-5.957L52.14 14h-3.056L45.9 8.043h2.985zM53.628 14V.91h8.821V3.19h-6.053v3.12h5.6v2.281h-5.6v3.126h6.079V14h-8.847zm15.662 0h-4.64V.91h4.678c1.317 0 2.45.261 3.401.785a5.303 5.303 0 012.192 2.244c.516.976.774 2.143.774 3.503 0 1.363-.258 2.535-.773 3.515a5.315 5.315 0 01-2.206 2.257c-.954.524-2.096.786-3.426.786zm-1.873-2.371h1.758c.818 0 1.507-.145 2.065-.435.562-.294.984-.748 1.265-1.362.286-.618.429-1.414.429-2.39 0-.968-.143-1.758-.429-2.372-.28-.613-.7-1.065-1.259-1.355-.558-.29-1.246-.434-2.064-.434h-1.765v8.348z" fill="#fff"/></svg>